HIERARCHY
ROOT root
{
	OFFSET 0.000000 0.000000 0.000000
	CHANNELS 6 Xposition Yposition Zposition Zrotation Yrotation Xrotation
	JOINT lhip
	{
		OFFSET 0.058581 -0.082280 -0.017664
		CHANNELS 3 Zrotation Yrotation Xrotation
		JOINT lknee
		{
			OFFSET 0.043451 -0.386469 0.008037
			CHANNELS 3 Zrotation Yrotation Xrotation
			JOINT lankle
			{
				OFFSET -0.014790 -0.426874 -0.037428
				CHANNELS 3 Zrotation Yrotation Xrotation
				JOINT ltoe
				{
					OFFSET 0.041054 -0.060286 0.122042
					CHANNELS 3 Zrotation Yrotation Xrotation
					End Site
					{
						OFFSET 0.000000 0.000000 0.000000
					}
				}
			}
		}
	}
	JOINT rhip
	{
		OFFSET -0.060310 -0.090513 -0.013543
		CHANNELS 3 Zrotation Yrotation Xrotation
		JOINT rknee
		{
			OFFSET -0.043257 -0.383688 -0.004843
			CHANNELS 3 Zrotation Yrotation Xrotation
			JOINT rankle
			{
				OFFSET 0.019056 -0.420046 -0.034562
				CHANNELS 3 Zrotation Yrotation Xrotation
				JOINT rtoe
				{
					OFFSET -0.034840 -0.062106 0.130323
					CHANNELS 3 Zrotation Yrotation Xrotation
					End Site
					{
						OFFSET 0.000000 0.000000 0.000000
					}
				}
			}
		}
	}
	JOINT lowerback
	{
		OFFSET 0.004439 0.124404 -0.038385
		CHANNELS 3 Zrotation Yrotation Xrotation
		JOINT upperback
		{
			OFFSET 0.004488 0.137956 0.026820
			CHANNELS 3 Zrotation Yrotation Xrotation
			JOINT chest
			{
				OFFSET -0.002265 0.056032 0.002855
				CHANNELS 3 Zrotation Yrotation Xrotation
				JOINT lowerneck
				{
					OFFSET -0.013390 0.211636 -0.033468
					CHANNELS 3 Zrotation Yrotation Xrotation
					JOINT upperneck
					{
						OFFSET 0.010113 0.088937 0.050410
						CHANNELS 3 Zrotation Yrotation Xrotation
						End Site
						{
							OFFSET 0.000000 0.000000 0.000000
						}
					}
				}
				JOINT lclavicle
				{
					OFFSET 0.071702 0.114000 -0.018898
					CHANNELS 3 Zrotation Yrotation Xrotation
					JOINT lshoulder
					{
						OFFSET 0.122921 0.045205 -0.019046
						CHANNELS 3 Zrotation Yrotation Xrotation
						JOINT lelbow
						{
							OFFSET 0.255332 -0.015649 -0.022946
							CHANNELS 3 Zrotation Yrotation Xrotation
							JOINT lwrist
							{
								OFFSET 0.265709 0.012698 -0.007375
								CHANNELS 3 Zrotation Yrotation Xrotation
								End Site
								{
									OFFSET 0.000000 0.000000 0.000000
								}
							}
						}
					}
				}
				JOINT rclavicle
				{
					OFFSET -0.082954 0.112472 -0.023707
					CHANNELS 3 Zrotation Yrotation Xrotation
					JOINT rshoulder
					{
						OFFSET -0.113228 0.046853 -0.008472
						CHANNELS 3 Zrotation Yrotation Xrotation
						JOINT relbow
						{
							OFFSET -0.260127 -0.014369 -0.031269
							CHANNELS 3 Zrotation Yrotation Xrotation
							JOINT rwrist
							{
								OFFSET -0.269108 0.006794 -0.006027
								CHANNELS 3 Zrotation Yrotation Xrotation
								End Site
								{
									OFFSET 0.000000 0.000000 0.000000
								}
							}
						}
					}
				}
			}
		}
	}
}
MOTION
Frames: 13
Frame Time: 0.033333
-0.443278 0.116641 0.811628 28.201866 -5.754064 81.492846 9.733121 0.844636 -46.496245 -11.798232 4.002491 53.316663 0.804986 9.906080 -9.627589 0.000000 -0.000000 0.000000 -8.853211 3.878282 -18.795731 16.554569 10.203665 90.981341 5.487875 9.116969 -25.039917 0.000000 -0.000000 0.000000 -0.809434 2.881130 49.898228 2.958611 -5.355360 -6.403534 1.630885 -0.425590 -0.703561 -15.634883 29.053896 -13.521114 -5.967548 19.730148 -2.646643 -19.482369 -12.924191 -6.628906 -16.183348 -0.514833 -8.625120 25.207655 -33.997237 -26.352644 27.676052 -11.304826 3.179660 28.399220 7.929642 -0.491154 41.344880 -4.545504 4.951829 -29.679644 35.498832 -27.002381 -20.681790 9.652707 4.874570 
-0.421066 0.107105 0.799605 27.580328 -5.546206 81.293331 9.808560 0.121552 -48.089508 -11.490178 5.656368 58.602484 2.100019 10.398244 -13.017275 0.000000 -0.000000 0.000000 -10.031038 5.289702 -17.413249 17.376318 9.838057 91.729605 6.090320 9.913919 -24.479624 0.000000 -0.000000 0.000000 -0.669172 3.087026 50.834029 3.190537 -5.520409 -6.172146 1.530601 -0.332909 -1.032166 -16.042116 29.197804 -14.440280 -6.329505 19.485703 -3.091757 -18.841243 -13.361931 -6.505046 -16.230783 0.104350 -8.790919 25.510749 -32.771404 -28.087889 28.013848 -10.624961 3.122213 28.361355 8.232601 -0.776725 41.514629 -4.569973 4.977413 -30.653343 34.703038 -28.720536 -21.830651 8.981448 4.447512 
-0.403337 0.099262 0.789493 25.396668 -5.052465 81.875067 10.446907 1.187377 -49.673813 -10.953103 6.985560 62.981762 2.605490 11.205011 -15.960222 0.000000 -0.000000 0.000000 -9.554586 5.171090 -17.799374 18.868305 11.939244 93.908299 6.291489 10.087428 -24.281695 0.000000 -0.000000 0.000000 -0.745858 4.306761 51.720168 3.047273 -4.985795 -6.712598 1.989141 -0.272752 -1.124567 -16.657685 28.629188 -15.130647 -6.315625 20.051845 -3.658044 -18.469158 -13.836992 -6.291315 -16.165795 1.047813 -9.678486 25.422853 -32.137613 -28.636046 28.034462 -10.242892 3.928145 28.103818 8.837152 -0.730375 41.724585 -4.555631 4.354602 -31.172930 34.880007 -29.500933 -19.428920 8.670428 5.872415 
-0.382690 0.090833 0.778924 24.160771 -4.693839 82.248444 10.404525 1.428115 -50.957262 -10.349995 7.883356 66.953627 2.935581 11.522426 -19.122060 0.000000 -0.000000 0.000000 -10.075261 5.818994 -17.171736 18.916637 12.688623 94.658874 6.717107 10.887973 -24.563327 0.000000 -0.000000 0.000000 -1.071335 4.678798 53.117833 2.997130 -5.202768 -6.918645 2.048005 0.341686 -1.303366 -16.882886 28.937536 -16.053576 -6.739089 19.513502 -4.364834 -17.509104 -14.309444 -6.548165 -15.913567 1.743012 -9.959160 25.243223 -30.968907 -29.440480 27.478924 -10.137926 4.226379 28.066954 9.622970 -1.147113 42.146082 -4.296099 4.527661 -31.773155 34.451817 -30.392654 -19.039320 8.437569 6.091388 
-0.371933 0.086225 0.774266 23.856531 -4.272128 82.743417 10.551071 1.448414 -51.873436 -10.227547 8.359284 68.784365 3.228981 11.697666 -20.516254 0.000000 -0.000000 0.000000 -10.309420 5.569505 -17.167835 19.042439 12.953271 94.873711 6.640710 11.032284 -24.544184 0.000000 -0.000000 0.000000 -0.993469 4.987448 53.634572 3.182088 -5.313515 -7.100490 2.302411 0.402695 -1.513455 -17.183325 28.958436 -16.322131 -6.903492 19.708553 -4.700406 -17.199959 -14.619034 -6.388987 -15.848694 2.069391 -10.518404 24.961769 -30.740197 -29.156075 26.992294 -9.973719 3.723390 27.744985 10.010928 -0.717264 42.447082 -4.094184 4.256153 -32.094521 34.657724 -30.429120 -18.865579 8.250614 5.878436 
-0.358533 0.080381 0.769278 23.669400 -3.638378 83.364899 10.738155 1.644115 -52.935181 -10.198231 8.925573 70.860008 3.770833 11.763054 -22.177246 0.000000 -0.000000 0.000000 -10.491713 5.584241 -16.761508 19.476028 13.335940 94.673154 6.715775 11.172518 -24.621469 0.000000 -0.000000 0.000000 -0.704903 5.206158 54.254474 3.317706 -5.276943 -7.664594 2.482641 0.437589 -1.174769 -17.468299 28.489165 -16.935250 -6.842127 19.626525 -5.074895 -16.766592 -15.092265 -6.220880 -15.592062 2.133080 -10.957232 24.282470 -30.435540 -28.919059 27.971401 -10.040262 2.728302 27.319827 10.331962 -0.687561 42.861701 -4.028542 4.243944 -32.606976 35.065813 -30.419952 -18.934545 8.188960 5.553367 
-0.346398 0.075503 0.766096 23.849681 -3.185675 84.063767 10.747285 1.354072 -53.813463 -9.781059 9.360513 72.312965 4.078174 11.303534 -23.774969 0.000000 -0.000000 0.000000 -10.883442 6.014453 -16.335987 19.543897 13.273303 94.024100 6.986310 11.667503 -24.762469 0.000000 -0.000000 0.000000 -0.829080 5.055880 54.679290 3.496809 -5.574094 -7.540245 2.537925 0.728302 -1.379224 -17.670481 28.450881 -17.782166 -7.085744 19.481880 -5.650858 -16.125041 -15.036703 -6.741958 -16.032504 1.987687 -10.907717 24.972511 -30.225101 -29.821863 27.260142 -9.894677 4.181439 27.270541 10.667266 -1.051482 43.084980 -3.998524 4.550921 -33.392343 34.975396 -30.605307 -16.658587 9.108714 6.700099 
-0.336990 0.068983 0.764764 23.968711 -2.534945 84.905058 10.785056 1.767355 -54.615168 -10.180762 9.403964 73.309361 4.275158 11.345508 -24.700546 0.000000 -0.000000 0.000000 -10.310263 4.946803 -16.318243 19.685657 14.240311 93.981367 6.690041 11.191196 -24.876811 0.000000 -0.000000 0.000000 -0.475937 5.486275 55.083705 3.641777 -5.791406 -7.954869 3.038929 0.130256 -1.422181 -18.453078 27.639736 -18.299586 -6.758616 20.079875 -6.391157 -15.952392 -15.395975 -6.776015 -15.445328 2.928391 -11.439168 24.249221 -30.508828 -29.457573 28.139959 -10.157437 3.199671 26.296599 11.572255 -0.063854 44.093449 -3.784102 4.177748 -33.787633 35.834247 -30.496809 -17.090287 9.107819 7.291646 
-0.325567 0.062352 0.763701 24.933780 -1.953872 85.635514 10.534550 1.093400 -55.399176 -10.233634 9.427819 74.160016 4.972585 11.498748 -25.827174 0.000000 -0.000000 0.000000 -10.411066 4.572675 -15.378417 19.442891 14.192638 92.701212 6.600586 10.947677 -25.241521 0.000000 -0.000000 0.000000 0.049408 4.862572 54.691469 3.880116 -6.531366 -7.434073 2.424637 0.640063 -1.405413 -18.436710 27.579628 -19.278462 -6.685412 19.604992 -6.979273 -15.397926 -15.694588 -6.611684 -14.929379 2.942946 -11.453772 23.678366 -30.816539 -28.378978 28.893681 -9.341306 1.935734 26.401228 11.469571 -0.036922 44.209853 -3.535101 4.388202 -33.820557 36.466578 -29.436542 -18.341335 9.046828 5.857246 
-0.313323 0.054396 0.764589 25.638887 -1.491128 86.849146 10.412917 0.817233 -56.307589 -10.524499 9.739670 74.934930 5.337559 11.570283 -27.084610 0.000000 -0.000000 0.000000 -10.350927 4.634458 -14.513865 19.115018 14.412406 90.964606 6.837809 10.488672 -25.350179 0.000000 -0.000000 0.000000 0.129783 5.464363 54.638597 3.947414 -6.285392 -8.533807 3.017298 0.169705 -0.829029 -18.532515 26.709447 -19.397505 -6.454993 19.598779 -7.874233 -15.273748 -16.117484 -6.091750 -15.385901 2.597659 -11.321746 24.462797 -30.841193 -29.000438 29.650603 -9.641096 1.134833 26.000055 11.219081 -0.435255 44.222838 -4.118651 4.713281 -33.713629 37.349831 -29.203015 -18.788172 8.610510 5.979867 
-0.304363 0.048168 0.766614 25.768095 -0.995860 87.311081 10.380368 1.054752 -56.128606 -10.629055 9.834592 75.279037 5.697795 11.416651 -28.050258 0.000000 -0.000000 0.000000 -10.057194 4.540831 -13.677413 18.745384 14.808566 89.662992 6.895795 10.177079 -24.855051 0.000000 -0.000000 0.000000 0.307153 5.506598 54.960559 3.676525 -6.370588 -8.501344 2.979636 0.271923 -1.129474 -18.486925 26.018710 -19.820303 -6.087101 19.662006 -8.086907 -15.009129 -16.182164 -6.574990 -15.312556 3.037888 -11.089900 24.526172 -31.221444 -29.069797 28.741594 -9.633851 1.240248 25.589571 11.732066 -0.721920 44.910980 -4.467467 4.840713 -34.430343 37.521219 -30.231336 -17.478835 8.830668 6.590529 
-0.295765 0.041948 0.768824 25.532540 -0.698792 88.010050 10.445236 1.237588 -56.023712 -10.604138 10.091721 75.394714 6.025615 11.297968 -28.880301 0.000000 -0.000000 0.000000 -9.952212 4.702545 -13.342274 18.563745 15.005000 88.560273 6.850229 9.303092 -24.234301 0.000000 -0.000000 0.000000 -0.229081 6.026984 54.836501 3.474597 -6.203092 -8.401641 3.105534 0.482175 -1.188683 -18.338104 25.964028 -20.206228 -6.035558 19.734613 -8.225257 -14.603164 -15.955044 -6.595780 -15.127214 2.955168 -11.502985 23.816854 -31.234003 -28.417511 28.669144 -9.496296 1.871415 25.459254 12.107470 -0.385978 45.254358 -4.250897 4.806381 -35.076033 37.452674 -30.477950 -16.131921 9.419194 6.742698 
-0.285650 0.035508 0.771027 25.841344 -0.242888 88.778291 10.572435 0.953256 -56.125318 -10.484194 10.529127 75.654963 6.211602 11.142911 -29.585037 0.000000 -0.000000 0.000000 -9.869878 4.471110 -12.860172 17.934647 15.012130 87.172196 6.871939 8.917782 -23.617015 0.000000 -0.000000 0.000000 -0.074822 6.143712 54.336893 3.478917 -6.369454 -8.139367 3.081155 0.621596 -1.376298 -18.359976 25.436745 -20.013830 -5.909438 20.014343 -8.744021 -14.439027 -15.891613 -6.444847 -15.794265 3.074754 -11.911111 24.695380 -31.357181 -29.102464 28.347709 -9.667866 2.450588 25.030690 12.580808 0.028622 45.557050 -4.146361 4.427936 -35.967682 37.364345 -31.038275 -15.479495 9.574605 7.073255 
